<?xml version="1.0" encoding="UTF-8" standalone="no"?>
<!-- Created with Inkscape (http://www.inkscape.org/) -->

<svg
   xmlns:dc="http://purl.org/dc/elements/1.1/"
   xmlns:cc="http://creativecommons.org/ns#"
   xmlns:rdf="http://www.w3.org/1999/02/22-rdf-syntax-ns#"
   xmlns:svg="http://www.w3.org/2000/svg"
   xmlns="http://www.w3.org/2000/svg"
   xmlns:sodipodi="http://sodipodi.sourceforge.net/DTD/sodipodi-0.dtd"
   xmlns:inkscape="http://www.inkscape.org/namespaces/inkscape"
   width="183mm"
   height="122mm"
   viewBox="0 0 183 122"
   version="1.1"
   id="svg1766"
   inkscape:version="0.92.4 (5da689c313, 2019-01-14)"
   sodipodi:docname="distributional_space.svg">
  <defs
     id="defs1760">
    <marker
       inkscape:stockid="Arrow1Lend"
       orient="auto"
       refY="0"
       refX="0"
       id="Arrow1Lend"
       style="overflow:visible"
       inkscape:isstock="true">
      <path
         id="path2427"
         d="M 0,0 5,-5 -12.5,0 5,5 Z"
         style="fill:#000000;fill-opacity:1;fill-rule:evenodd;stroke:#000000;stroke-width:1.00000003pt;stroke-opacity:1"
         transform="matrix(-0.8,0,0,-0.8,-10,0)"
         inkscape:connector-curvature="0" />
    </marker>
    <inkscape:path-effect
       effect="bspline"
       id="path-effect2422"
       is_visible="true"
       weight="33.333333"
       steps="2"
       helper_size="0"
       apply_no_weight="true"
       apply_with_weight="true"
       only_selected="false" />
    <inkscape:path-effect
       effect="bspline"
       id="path-effect2384"
       is_visible="true"
       weight="33.333333"
       steps="2"
       helper_size="0"
       apply_no_weight="true"
       apply_with_weight="true"
       only_selected="false" />
    <inkscape:perspective
       sodipodi:type="inkscape:persp3d"
       inkscape:vp_x="11.497964 : 114.40302 : 1"
       inkscape:vp_y="224.48296 : 135.14873 : 1"
       inkscape:vp_z="84.922695 : -76.229822 : 1"
       inkscape:persp3d-origin="73.392658 : 114.98414 : 1"
       id="perspective2321" />
    <marker
       inkscape:stockid="Arrow1Lend"
       orient="auto"
       refY="0"
       refX="0"
       id="Arrow1Lend-5"
       style="overflow:visible"
       inkscape:isstock="true">
      <path
         inkscape:connector-curvature="0"
         id="path2427-6"
         d="M 0,0 5,-5 -12.5,0 5,5 Z"
         style="fill:#000000;fill-opacity:1;fill-rule:evenodd;stroke:#000000;stroke-width:1.00000003pt;stroke-opacity:1"
         transform="matrix(-0.8,0,0,-0.8,-10,0)" />
    </marker>
    <inkscape:path-effect
       effect="bspline"
       id="path-effect2422-2"
       is_visible="true"
       weight="33.333333"
       steps="2"
       helper_size="0"
       apply_no_weight="true"
       apply_with_weight="true"
       only_selected="false" />
  </defs>
  <sodipodi:namedview
     id="base"
     pagecolor="#ffffff"
     bordercolor="#666666"
     borderopacity="1.0"
     inkscape:pageopacity="0.0"
     inkscape:pageshadow="2"
     inkscape:zoom="0.70710678"
     inkscape:cx="82.22989"
     inkscape:cy="484.79304"
     inkscape:document-units="mm"
     inkscape:current-layer="layer1"
     showgrid="false"
     inkscape:window-width="1920"
     inkscape:window-height="1016"
     inkscape:window-x="1920"
     inkscape:window-y="27"
     inkscape:window-maximized="1"
     fit-margin-left="0"
     fit-margin-bottom="0" />
  <metadata
     id="metadata1763">
    <rdf:RDF>
      <cc:Work
         rdf:about="">
        <dc:format>image/svg+xml</dc:format>
        <dc:type
           rdf:resource="http://purl.org/dc/dcmitype/StillImage" />
        <dc:title></dc:title>
      </cc:Work>
    </rdf:RDF>
  </metadata>
  <g
     inkscape:label="レイヤー 1"
     inkscape:groupmode="layer"
     id="layer1"
     transform="translate(0,-175)">
    <g
       sodipodi:type="inkscape:box3d"
       id="g2351"
       inkscape:perspectiveID="#perspective2321"
       inkscape:corner0="-0.28776856 : 0.12634865 : 0 : 1"
       inkscape:corner7="-0.32923235 : -0.13702265 : 0.68112136 : 1"
       style="fill:none;fill-opacity:1;stroke:#000000;stroke-width:2.13543296;stroke-miterlimit:4;stroke-dasharray:none;stroke-dashoffset:0.21354331;stroke-opacity:1">
      <path
         style="fill:#353564;fill-rule:evenodd;stroke:none;stroke-linejoin:round"
         points="68.365883,186.52862 77.342186,287.74897 102.84236,265.93031 117.39729,178.77825 "
         d="m 117.39729,178.77825 -49.031407,7.75037 8.976303,101.22035 25.500174,-21.81866 z"
         inkscape:box3dsidetype="6"
         id="path2353"
         sodipodi:type="inkscape:box3dside" />
      <path
         style="fill:#e9e9ff;fill-rule:evenodd;stroke:none;stroke-linejoin:round"
         points="105.40453,268.26777 79.589471,291.33784 77.342186,287.74897 102.84236,265.93031 "
         d="m 102.84236,265.93031 2.56217,2.33746 -25.815059,23.07007 -2.247285,-3.58887 z"
         inkscape:box3dsidetype="11"
         id="path2363"
         sodipodi:type="inkscape:box3dside" />
      <path
         style="fill:#4d4d9f;fill-rule:evenodd;stroke:none;stroke-linejoin:round"
         points="122.90588,178.57961 105.40453,268.26777 102.84236,265.93031 117.39729,178.77825 "
         d="m 117.39729,178.77825 5.50859,-0.19864 -17.50135,89.68816 -2.56217,-2.33746 z"
         inkscape:box3dsidetype="5"
         id="path2355"
         sodipodi:type="inkscape:box3dside" />
      <path
         style="fill:#afafde;fill-rule:evenodd;stroke:none;stroke-linejoin:round"
         points="72.783647,186.83404 79.589471,291.33784 77.342186,287.74897 68.365883,186.52862 "
         d="m 68.365883,186.52862 4.417764,0.30542 6.805824,104.5038 -2.247285,-3.58887 z"
         inkscape:box3dsidetype="13"
         id="path2361"
         sodipodi:type="inkscape:box3dside" />
      <path
         style="fill:#d7d7ff;fill-rule:evenodd;stroke:none;stroke-linejoin:round"
         points="72.783647,186.83404 79.589471,291.33784 105.40453,268.26777 122.90588,178.57961 "
         d="m 122.90588,178.57961 -50.122233,8.25443 6.805824,104.5038 25.815059,-23.07007 z"
         inkscape:box3dsidetype="14"
         id="path2359"
         sodipodi:type="inkscape:box3dside" />
      <path
         style="fill:#8686bf;fill-rule:evenodd;stroke:none;stroke-linejoin:round"
         points="122.90588,178.57961 72.783647,186.83404 68.365883,186.52862 117.39729,178.77825 "
         d="m 117.39729,178.77825 5.50859,-0.19864 -50.122233,8.25443 -4.417764,-0.30542 z"
         inkscape:box3dsidetype="3"
         id="path2357"
         sodipodi:type="inkscape:box3dside" />
    </g>
    <circle
       style="fill:none;fill-opacity:1;stroke:#000000;stroke-width:0.56499994;stroke-miterlimit:4;stroke-dasharray:none;stroke-dashoffset:0.21354331;stroke-opacity:1"
       id="path2365"
       cx="10.318751"
       cy="248.80807"
       r="1.3229166" />
    <circle
       style="fill:none;fill-opacity:1;stroke:#000000;stroke-width:0.565;stroke-miterlimit:4;stroke-dasharray:none;stroke-dashoffset:0.21354331;stroke-opacity:1"
       id="path2365-5"
       cx="163.96608"
       cy="251.26491"
       r="1.3229166" />
    <path
       style="fill:none;stroke:#000000;stroke-width:0.66500002;stroke-linecap:butt;stroke-linejoin:miter;stroke-miterlimit:4;stroke-dasharray:0.66500005, 1.3300001;stroke-dashoffset:0.0665;stroke-opacity:1"
       d="M 34.017857,97.050594 C 40.443766,93.396645 46.86936,89.742876 55.436823,85.711153 64.004287,81.67943 74.713613,77.269709 85.485766,75.190905 96.25792,73.112102 107.09351,73.364092 119.50355,74.49801 c 12.41003,1.133917 26.39548,3.149837 37.7976,7.559505 11.40212,4.409667 20.2217,11.213344 29.04111,18.016885"
       id="path2382"
       inkscape:connector-curvature="0"
       inkscape:path-effect="#path-effect2384"
       inkscape:original-d="m 34.017857,97.050594 c 6.42586,-3.654035 12.851454,-7.307804 19.276784,-10.96131 10.709591,-4.409986 21.418917,-8.819708 32.127976,-13.229165 10.835309,0.251711 21.670903,0.503703 32.505953,0.755951 13.98505,2.015562 27.9705,4.031483 41.95536,6.047619 8.81957,6.803199 17.63915,13.606877 26.45833,20.410711"
       sodipodi:nodetypes="cccccc"
       transform="translate(-22.754167,150.81248)" />
    <circle
       style="fill:none;fill-opacity:1;stroke:#000000;stroke-width:0.56500006;stroke-miterlimit:4;stroke-dasharray:none;stroke-dashoffset:0.21354331;stroke-opacity:1"
       id="path2365-5-3"
       cx="97.425751"
       cy="225.43892"
       r="1.3229166" />
    <path
       style="fill:none;stroke:#000000;stroke-width:0.26458332px;stroke-linecap:butt;stroke-linejoin:miter;stroke-opacity:1;marker-end:url(#Arrow1Lend)"
       d="m 130.42753,47.102992 c 6.14734,2.405478 12.29454,4.810903 18.4416,7.216275"
       id="path2420"
       inkscape:connector-curvature="0"
       inkscape:path-effect="#path-effect2422"
       inkscape:original-d="m 130.42753,47.102992 c 6.14746,2.405161 12.29466,4.810586 18.4416,7.216275"
       transform="translate(-22.754167,150.81248)" />
    <path
       transform="rotate(-180,107.33131,164.68702)"
       style="fill:none;stroke:#000000;stroke-width:0.26458332px;stroke-linecap:butt;stroke-linejoin:miter;stroke-opacity:1;marker-end:url(#Arrow1Lend-5)"
       d="m 130.42753,47.102992 c 6.14734,2.405478 12.29454,4.810903 18.4416,7.216275"
       id="path2420-9"
       inkscape:connector-curvature="0"
       inkscape:path-effect="#path-effect2422-2"
       inkscape:original-d="m 130.42753,47.102992 c 6.14746,2.405161 12.29466,4.810586 18.4416,7.216275" />
    <g
       id="g2971"
       transform="translate(-81.820733,146.2689)">
      <g
         word-spacing="normal"
         letter-spacing="normal"
         font-size-adjust="none"
         font-stretch="normal"
         font-weight="normal"
         font-variant="normal"
         font-style="normal"
         stroke-miterlimit="10.433"
         xml:space="preserve"
         transform="matrix(0.3,0,0,-0.3,-52.5,222.75)"
         id="content"
         style="font-style:normal;font-variant:normal;font-weight:normal;font-stretch:normal;letter-spacing:normal;word-spacing:normal;text-anchor:start;fill:none;fill-opacity:1;fill-rule:evenodd;stroke:#000000;stroke-linecap:butt;stroke-linejoin:miter;stroke-miterlimit:10.43299961;stroke-dasharray:none;stroke-dashoffset:0;stroke-opacity:1"><path
           id="path2968"
           d="m 472.86,440.23 -0.65,-0.01 -0.64,-0.03 -0.64,-0.05 -0.62,-0.06 -0.61,-0.08 -0.6,-0.1 -0.59,-0.11 -0.58,-0.13 -0.56,-0.14 -0.55,-0.15 -0.54,-0.16 -0.53,-0.18 -0.51,-0.18 -0.5,-0.2 -0.48,-0.2 -0.47,-0.21 -0.45,-0.22 -0.44,-0.22 -0.43,-0.23 -0.41,-0.23 -0.39,-0.24 -0.38,-0.24 -0.36,-0.24 -0.35,-0.24 -0.33,-0.24 -0.31,-0.24 -0.29,-0.25 -0.27,-0.23 -0.26,-0.24 -0.24,-0.23 -0.22,-0.23 -0.2,-0.22 c -1.74,-1.99 -1.89,-3.44 -1.89,-3.54 0,-0.29 0.2,-0.4 0.5,-0.4 0.79,0 1.93,0.7 2.34,0.95 1.05,0.69 1.19,1 1.48,1.94 0.71,2 2.1,3.73 8.38,4.03 -0.89,-11.2 -3.89,-22.11 -8.08,-32.53 -0.3,-0.75 -0.3,-0.84 -0.3,-0.89 0,-0.16 0.16,-0.35 0.5,-0.35 0.8,0 3.19,1.1 3.74,2.4 2.59,6.07 6.69,17.53 8.17,31.37 h 2.59 c 6.08,0 11.91,-2.33 11.91,-7.31 0,-3.74 -3.58,-10.72 -13.25,-11.02 -1.05,-0.04 -1.59,-0.04 -2.98,-0.95 -0.91,-0.59 -1.3,-1.14 -1.3,-1.44 0,-0.34 0.3,-0.34 0.94,-0.34 9.08,0 20.83,7.67 20.83,15.89 0,5.67 -6.72,7.92 -12.5,7.92 z"
           inkscape:connector-curvature="0"
           style="fill:#000000;stroke-width:0" /></g>    </g>
    <g
       id="g3009"
       transform="translate(82.015483,155.0888)">
      <g
         word-spacing="normal"
         letter-spacing="normal"
         font-size-adjust="none"
         font-stretch="normal"
         font-weight="normal"
         font-variant="normal"
         font-style="normal"
         stroke-miterlimit="10.433"
         xml:space="preserve"
         transform="matrix(0.3,0,0,-0.3,-52.5,222.75)"
         id="g3007"
         style="font-style:normal;font-variant:normal;font-weight:normal;font-stretch:normal;letter-spacing:normal;word-spacing:normal;text-anchor:start;fill:none;fill-opacity:1;fill-rule:evenodd;stroke:#000000;stroke-linecap:butt;stroke-linejoin:miter;stroke-miterlimit:10.43299961;stroke-dasharray:none;stroke-dashoffset:0;stroke-opacity:1"><path
           id="path3005"
           d="m 466.63,407.59 h -0.09 -0.09 -0.16 -0.16 l -0.16,-0.01 -0.15,-0.01 -0.15,-0.02 -0.15,-0.02 -0.08,-0.02 -0.07,-0.01 -0.08,-0.02 -0.08,-0.02 -0.08,-0.03 -0.08,-0.02 -0.08,-0.03 -0.09,-0.03 -0.08,-0.04 -0.09,-0.04 -0.09,-0.04 -0.1,-0.04 -0.09,-0.05 -0.1,-0.05 -0.11,-0.06 -0.1,-0.06 -0.11,-0.06 -0.12,-0.07 c -0.4,-0.23 -1.59,-1.05 -1.59,-1.64 0,-0.34 0.25,-0.34 0.5,-0.34 3.33,-0.16 5.38,-0.6 10.36,-2.35 3.44,-1.25 6.97,-2.48 10.91,-2.48 5.82,0 10.65,5.12 10.65,7.17 0,0.25 -0.18,0.39 -0.43,0.39 -0.5,0 -1.55,-0.39 -2.35,-0.94 -1.14,-0.75 -1.25,-1.09 -1.5,-1.75 -0.69,-1.98 -1.73,-2.14 -3.09,-2.14 -3.28,0 -5.52,0.8 -12.71,3.24 8.63,2.43 19.49,11.06 19.49,23.07 0,6.77 -3.69,12.25 -11.02,12.25 -10.15,0 -21.97,-10.4 -21.97,-20.78 0,-5.28 3.15,-9.26 8.68,-9.26 5.03,0 10.72,3.29 10.72,4.48 0,0.3 -0.36,0.3 -0.55,0.3 -0.7,0 -1.55,-0.5 -2.25,-0.85 -2.05,-1.14 -4.14,-1.18 -4.63,-1.18 -4.48,0 -7.73,3.48 -7.73,8.61 0,6.23 5.64,15.95 14.45,15.95 6.28,0 10.06,-4.98 10.06,-11.61 0,-4.94 -2.04,-10.56 -6.78,-14.75 -3.23,-2.94 -6.87,-4.64 -15.03,-4.64 z"
           inkscape:connector-curvature="0"
           style="fill:#000000;stroke-width:0" /></g>    </g>
    <g
       id="g3062"
       transform="translate(5.8436723,123.01645)">
      <g
         word-spacing="normal"
         letter-spacing="normal"
         font-size-adjust="none"
         font-stretch="normal"
         font-weight="normal"
         font-variant="normal"
         font-style="normal"
         stroke-miterlimit="10.433"
         xml:space="preserve"
         transform="matrix(0.3,0,0,-0.3,-52.5,222.75)"
         id="g3060"
         style="font-style:normal;font-variant:normal;font-weight:normal;font-stretch:normal;letter-spacing:normal;word-spacing:normal;text-anchor:start;fill:none;fill-opacity:1;fill-rule:evenodd;stroke:#000000;stroke-linecap:butt;stroke-linejoin:miter;stroke-miterlimit:10.43299961;stroke-dasharray:none;stroke-dashoffset:0;stroke-opacity:1"><path
           id="path3052"
           d="m 470.61,421.95 0.21,1.28 3.39,13.56 c 0.43,1.74 0.54,1.89 2.68,1.89 h 4.79 c 4.14,0 6.78,-1.34 6.78,-4.78 0,-1.95 -1,-6.23 -2.94,-8.03 -2.5,-2.23 -5.48,-2.64 -7.69,-2.64 h -7.01 l -0.21,-1.28 h 8.47 c 7.08,0 14,5.17 14,10.75 0,3.84 -3.28,7.53 -9.81,7.53 h -16.14 c -0.95,0 -1.5,0 -1.5,-0.95 0,-0.6 0.45,-0.6 1.45,-0.6 0.64,0 1.55,-0.04 2.14,-0.09 0.8,-0.11 1.1,-0.25 1.1,-0.8 0,-0.2 -0.05,-0.36 -0.21,-0.95 l -6.67,-26.75 c -0.5,-1.95 -0.59,-2.34 -4.53,-2.34 -0.84,0 -1.39,0 -1.39,-0.96 0,-0.59 0.59,-0.59 0.73,-0.59 1.41,0 4.94,0.16 6.33,0.16 1.05,0 2.14,-0.07 3.19,-0.07 1.11,0 2.2,-0.09 3.25,-0.09 0.34,0 0.98,0 0.98,1 0,0.55 -0.43,0.55 -1.39,0.55 -1.84,0 -3.23,0 -3.23,0.89 0,0.29 0.09,0.54 0.14,0.84 z"
           inkscape:connector-curvature="0"
           style="fill:#000000;stroke-width:0" /><path
           id="path3054"
           d="m 506.89,450.34 -0.6,-0.45 -0.58,-0.46 -0.55,-0.47 -0.53,-0.49 -0.5,-0.5 -0.47,-0.51 -0.45,-0.53 -0.42,-0.53 -0.4,-0.54 -0.37,-0.55 -0.36,-0.56 -0.33,-0.56 -0.31,-0.57 -0.28,-0.57 -0.27,-0.58 -0.25,-0.58 -0.22,-0.58 -0.21,-0.58 -0.19,-0.59 -0.18,-0.58 -0.15,-0.58 -0.14,-0.58 -0.13,-0.57 -0.1,-0.57 -0.1,-0.57 -0.07,-0.56 -0.07,-0.55 -0.05,-0.55 -0.04,-0.53 -0.03,-0.53 -0.01,-0.52 -0.01,-0.5 c 0,-4.92 1.47,-12.55 8.37,-17.42 0.29,0 0.69,0 0.69,0.4 0,0.22 -0.09,0.28 -0.34,0.53 -4.64,4.19 -6.35,10.11 -6.35,16.46 0,9.4 3.6,14 6.46,16.58 0.14,0.14 0.23,0.25 0.23,0.42 0,0.42 -0.4,0.42 -0.69,0.42 z"
           inkscape:connector-curvature="0"
           style="fill:#000000;stroke-width:0" /><path
           id="path3056"
           d="m 524.2,434.17 0.32,-0.76 0.33,-0.77 0.34,-0.78 0.33,-0.78 0.32,-0.78 0.32,-0.76 0.15,-0.37 0.16,-0.36 0.14,-0.36 0.15,-0.34 0.14,-0.34 0.14,-0.32 0.13,-0.31 0.13,-0.3 0.12,-0.29 0.12,-0.27 0.11,-0.25 0.1,-0.23 0.1,-0.22 0.09,-0.19 0.08,-0.18 0.07,-0.15 0.07,-0.13 0.06,-0.11 0.05,-0.08 0.03,-0.06 c 0.66,-0.82 1.3,-0.82 1.85,-0.82 h 0.7 c 0.66,0 1.02,0 1.02,0.4 0,0.19 -0.11,0.28 -0.19,0.36 -0.41,0.38 -0.77,1.19 -0.91,1.5 l -8.5,20.06 c -0.23,0.63 -0.93,2.21 -4.62,2.21 -0.42,0 -0.91,0 -0.91,-0.5 0,-0.41 0.35,-0.46 0.52,-0.49 0.73,-0.09 1.39,-0.2 2.26,-2.19 l 4.14,-9.76 -10.26,-9.27 c -0.42,-0.34 -0.7,-0.62 -0.7,-1.22 0,-0.82 0.7,-1.18 1.18,-1.18 0.66,0 1.08,0.45 1.19,0.56 z"
           inkscape:connector-curvature="0"
           style="fill:#000000;stroke-width:0" /><path
           id="path3058"
           d="m 536.9,450.34 h -0.03 -0.02 -0.03 -0.03 -0.02 -0.03 -0.03 l -0.03,-0.01 h -0.02 -0.03 l -0.03,-0.01 h -0.03 l -0.03,-0.01 -0.02,-0.01 h -0.03 l -0.02,-0.01 -0.03,-0.01 -0.02,-0.02 -0.03,-0.01 -0.02,-0.01 -0.02,-0.02 -0.02,-0.02 -0.02,-0.02 -0.01,-0.01 -0.01,-0.01 -0.01,-0.01 v -0.01 l -0.01,-0.01 -0.01,-0.02 v -0.01 l -0.01,-0.01 v -0.02 l -0.01,-0.01 v -0.02 l -0.01,-0.01 v -0.02 -0.02 -0.02 l -0.01,-0.01 v -0.02 -0.02 c 0,-0.17 0.11,-0.28 0.31,-0.53 3,-2.75 6.35,-7.46 6.35,-16.44 0,-7.28 -2.27,-12.8 -6.03,-16.2 -0.58,-0.6 -0.63,-0.63 -0.63,-0.82 0,-0.17 0.11,-0.4 0.46,-0.4 0.42,0 3.73,2.29 6.03,6.65 1.53,2.89 2.54,6.66 2.54,10.74 0,4.9 -1.47,12.53 -8.35,17.42 z"
           inkscape:connector-curvature="0"
           style="fill:#000000;stroke-width:0" /></g>    </g>
    <g
       id="g3116"
       transform="translate(41.39052,101.10035)">
      <g
         word-spacing="normal"
         letter-spacing="normal"
         font-size-adjust="none"
         font-stretch="normal"
         font-weight="normal"
         font-variant="normal"
         font-style="normal"
         stroke-miterlimit="10.433"
         xml:space="preserve"
         transform="matrix(0.3,0,0,-0.3,-52.5,222.75)"
         id="g3114"
         style="font-style:normal;font-variant:normal;font-weight:normal;font-stretch:normal;letter-spacing:normal;word-spacing:normal;text-anchor:start;fill:none;fill-opacity:1;fill-rule:evenodd;stroke:#000000;stroke-linecap:butt;stroke-linejoin:miter;stroke-miterlimit:10.43299961;stroke-dasharray:none;stroke-dashoffset:0;stroke-opacity:1"><path
           id="path3108"
           d="m 474.16,436.34 0.04,0.16 0.04,0.16 0.04,0.15 0.04,0.15 0.04,0.13 0.05,0.13 0.05,0.13 0.05,0.11 0.06,0.12 0.06,0.1 0.08,0.1 0.08,0.09 0.09,0.09 0.1,0.08 0.11,0.08 0.12,0.07 0.13,0.06 0.15,0.06 0.16,0.06 0.18,0.05 0.09,0.02 0.1,0.02 0.1,0.02 0.11,0.02 0.11,0.02 0.11,0.02 0.12,0.02 0.13,0.01 0.13,0.01 0.14,0.02 0.14,0.01 0.14,0.01 0.15,0.01 0.16,0.01 0.16,0.01 0.17,0.01 h 0.17 l 0.18,0.01 h 0.18 l 0.19,0.01 h 0.2 0.2 0.21 0.22 c 1.49,0 1.89,0 1.89,0.96 0,0.59 -0.54,0.59 -0.79,0.59 -1.66,0 -5.74,-0.16 -7.38,-0.16 -1.5,0 -5.14,0.16 -6.62,0.16 -0.36,0 -0.96,0 -0.96,-1 0,-0.55 0.46,-0.55 1.39,-0.55 0.11,0 1.05,0 1.91,-0.09 0.89,-0.11 1.34,-0.16 1.34,-0.8 0,-0.2 -0.06,-0.36 -0.2,-0.95 l -6.67,-26.75 c -0.5,-1.95 -0.61,-2.34 -4.55,-2.34 -0.84,0 -1.34,0 -1.34,-1 0,-0.55 0.45,-0.55 1.34,-0.55 h 23.08 c 1.19,0 1.23,0 1.55,0.84 l 3.92,10.77 c 0.2,0.55 0.2,0.64 0.2,0.7 0,0.19 -0.14,0.55 -0.59,0.55 -0.46,0 -0.5,-0.25 -0.85,-1.05 -1.7,-4.59 -3.89,-10.26 -12.51,-10.26 h -4.67 c -0.71,0 -0.8,0 -1.1,0.04 -0.5,0.05 -0.65,0.1 -0.65,0.5 0,0.14 0,0.25 0.25,1.14 z"
           inkscape:connector-curvature="0"
           style="fill:#000000;stroke-width:0" /><path
           id="path3110"
           d="m 515.4,432.07 h 0.06 0.05 l 0.11,0.01 h 0.12 0.06 l 0.06,0.01 h 0.06 l 0.05,0.01 0.06,0.01 0.06,0.01 0.06,0.01 0.05,0.01 0.06,0.02 0.05,0.02 0.05,0.02 0.05,0.02 0.05,0.03 0.04,0.03 0.04,0.03 0.04,0.04 0.04,0.04 0.02,0.02 0.01,0.02 0.02,0.02 0.02,0.03 0.01,0.02 0.01,0.03 0.02,0.02 0.01,0.03 0.01,0.03 0.01,0.03 v 0.03 l 0.01,0.03 0.01,0.04 v 0.03 l 0.01,0.03 v 0.04 0.04 0.04 c 0,0.86 -0.79,0.86 -1.39,0.86 h -20.76 c -0.57,0 -1.39,0 -1.39,-0.83 0,-0.88 0.79,-0.88 1.39,-0.88 z"
           inkscape:connector-curvature="0"
           style="fill:#000000;stroke-width:0" /><path
           id="path3112"
           d="m 505.06,398.71 -0.01,0.1 -0.01,0.11 -0.03,0.25 -0.03,0.27 -0.04,0.31 -0.05,0.33 -0.06,0.36 -0.07,0.37 -0.07,0.4 -0.09,0.41 -0.11,0.43 -0.11,0.43 -0.13,0.44 -0.14,0.45 -0.15,0.45 -0.17,0.45 -0.19,0.45 -0.2,0.44 -0.22,0.43 -0.23,0.42 -0.25,0.41 -0.28,0.39 -0.29,0.37 -0.31,0.34 -0.33,0.33 -0.36,0.29 -0.18,0.14 -0.19,0.13 -0.2,0.12 -0.2,0.11 -0.21,0.1 -0.21,0.09 -0.22,0.09 -0.22,0.07 -0.24,0.06 -0.23,0.05 -0.25,0.04 -0.25,0.03 -0.25,0.02 -0.27,0.01 c -2.05,0 -3.83,-1.11 -4.8,-2.02 -2.12,-1.92 -2.54,-4.14 -2.54,-4.25 0,-0.42 0.45,-0.42 0.56,-0.42 0.44,0 0.48,0.08 0.66,0.6 0.73,2.06 3.31,3.31 5.64,3.31 5.61,0 6.34,-5.61 6.34,-9.16 0,-1.75 -0.11,-2.12 -0.25,-2.51 -0.8,-2.61 -1.84,-6.49 -1.84,-7.54 0,-0.37 0.14,-0.82 0.59,-0.82 0.25,0 0.63,0 1.19,1.81 0.42,1.36 1.08,3.94 1.36,6.44 0.14,1.22 2.09,5.92 2.83,7.59 0.48,1.09 1.21,2.72 2.84,5.75 0.11,0.19 0.19,0.31 0.19,0.45 0,0.43 -0.46,0.43 -0.57,0.43 -0.1,0 -0.42,0 -0.53,-0.18 -0.4,-0.73 -3.06,-5.72 -4.62,-9.97 z"
           inkscape:connector-curvature="0"
           style="fill:#000000;stroke-width:0" /></g>    </g>
    <g
       id="g3174"
       transform="translate(-30.504983,189.2993)">
      <g
         word-spacing="normal"
         letter-spacing="normal"
         font-size-adjust="none"
         font-stretch="normal"
         font-weight="normal"
         font-variant="normal"
         font-style="normal"
         stroke-miterlimit="10.433"
         xml:space="preserve"
         transform="matrix(0.3,0,0,-0.3,-52.5,222.75)"
         id="g3172"
         style="font-style:normal;font-variant:normal;font-weight:normal;font-stretch:normal;letter-spacing:normal;word-spacing:normal;text-anchor:start;fill:none;fill-opacity:1;fill-rule:evenodd;stroke:#000000;stroke-linecap:butt;stroke-linejoin:miter;stroke-miterlimit:10.43299961;stroke-dasharray:none;stroke-dashoffset:0;stroke-opacity:1"><path
           id="path3166"
           d="m 474.16,436.34 0.04,0.16 0.04,0.16 0.04,0.15 0.04,0.15 0.04,0.13 0.05,0.13 0.05,0.13 0.05,0.11 0.06,0.12 0.06,0.1 0.08,0.1 0.08,0.09 0.09,0.09 0.1,0.08 0.11,0.08 0.12,0.07 0.13,0.06 0.15,0.06 0.16,0.06 0.18,0.05 0.09,0.02 0.1,0.02 0.1,0.02 0.11,0.02 0.11,0.02 0.11,0.02 0.12,0.02 0.13,0.01 0.13,0.01 0.14,0.02 0.14,0.01 0.14,0.01 0.15,0.01 0.16,0.01 0.16,0.01 0.17,0.01 h 0.17 l 0.18,0.01 h 0.18 l 0.19,0.01 h 0.2 0.2 0.21 0.22 c 1.49,0 1.89,0 1.89,0.96 0,0.59 -0.54,0.59 -0.79,0.59 -1.66,0 -5.74,-0.16 -7.38,-0.16 -1.5,0 -5.14,0.16 -6.62,0.16 -0.36,0 -0.96,0 -0.96,-1 0,-0.55 0.46,-0.55 1.39,-0.55 0.11,0 1.05,0 1.91,-0.09 0.89,-0.11 1.34,-0.16 1.34,-0.8 0,-0.2 -0.06,-0.36 -0.2,-0.95 l -6.67,-26.75 c -0.5,-1.95 -0.61,-2.34 -4.55,-2.34 -0.84,0 -1.34,0 -1.34,-1 0,-0.55 0.45,-0.55 1.34,-0.55 h 23.08 c 1.19,0 1.23,0 1.55,0.84 l 3.92,10.77 c 0.2,0.55 0.2,0.64 0.2,0.7 0,0.19 -0.14,0.55 -0.59,0.55 -0.46,0 -0.5,-0.25 -0.85,-1.05 -1.7,-4.59 -3.89,-10.26 -12.51,-10.26 h -4.67 c -0.71,0 -0.8,0 -1.1,0.04 -0.5,0.05 -0.65,0.1 -0.65,0.5 0,0.14 0,0.25 0.25,1.14 z"
           inkscape:connector-curvature="0"
           style="fill:#000000;stroke-width:0" /><path
           id="path3168"
           d="m 505.62,432.07 h 10.66 c 0.45,0 1.28,0 1.28,0.85 0,0.86 -0.8,0.86 -1.28,0.86 h -10.66 v 10.7 c 0,0.45 0,1.28 -0.84,1.28 -0.88,0 -0.88,-0.8 -0.88,-1.28 v -10.7 h -10.69 c -0.45,0 -1.29,0 -1.29,-0.83 0,-0.88 0.79,-0.88 1.29,-0.88 h 10.69 v -10.7 c 0,-0.45 0,-1.28 0.85,-1.28 0.87,0 0.87,0.8 0.87,1.28 z"
           inkscape:connector-curvature="0"
           style="fill:#000000;stroke-width:0" /><path
           id="path3170"
           d="m 505.06,398.71 -0.01,0.1 -0.01,0.11 -0.03,0.25 -0.03,0.27 -0.04,0.31 -0.05,0.33 -0.06,0.36 -0.07,0.37 -0.07,0.4 -0.09,0.41 -0.11,0.43 -0.11,0.43 -0.13,0.44 -0.14,0.45 -0.15,0.45 -0.17,0.45 -0.19,0.45 -0.2,0.44 -0.22,0.43 -0.23,0.42 -0.25,0.41 -0.28,0.39 -0.29,0.37 -0.31,0.34 -0.33,0.33 -0.36,0.29 -0.18,0.14 -0.19,0.13 -0.2,0.12 -0.2,0.11 -0.21,0.1 -0.21,0.09 -0.22,0.09 -0.22,0.07 -0.24,0.06 -0.23,0.05 -0.25,0.04 -0.25,0.03 -0.25,0.02 -0.27,0.01 c -2.05,0 -3.83,-1.11 -4.8,-2.02 -2.12,-1.92 -2.54,-4.14 -2.54,-4.25 0,-0.42 0.45,-0.42 0.56,-0.42 0.44,0 0.48,0.08 0.66,0.6 0.73,2.06 3.31,3.31 5.64,3.31 5.61,0 6.34,-5.61 6.34,-9.16 0,-1.75 -0.11,-2.12 -0.25,-2.51 -0.8,-2.61 -1.84,-6.49 -1.84,-7.54 0,-0.37 0.14,-0.82 0.59,-0.82 0.25,0 0.63,0 1.19,1.81 0.42,1.36 1.08,3.94 1.36,6.44 0.14,1.22 2.09,5.92 2.83,7.59 0.48,1.09 1.21,2.72 2.84,5.75 0.11,0.19 0.19,0.31 0.19,0.45 0,0.43 -0.46,0.43 -0.57,0.43 -0.1,0 -0.42,0 -0.53,-0.18 -0.4,-0.73 -3.06,-5.72 -4.62,-9.97 z"
           inkscape:connector-curvature="0"
           style="fill:#000000;stroke-width:0" /></g>    </g>
    <g
       id="g3235"
       transform="translate(-46.979397,112.63538)">
      <g
         word-spacing="normal"
         letter-spacing="normal"
         font-size-adjust="none"
         font-stretch="normal"
         font-weight="normal"
         font-variant="normal"
         font-style="normal"
         stroke-miterlimit="10.433"
         xml:space="preserve"
         transform="matrix(0.3,0,0,-0.3,-52.5,222.75)"
         id="g3233"
         style="font-style:normal;font-variant:normal;font-weight:normal;font-stretch:normal;letter-spacing:normal;word-spacing:normal;text-anchor:start;fill:none;fill-opacity:1;fill-rule:evenodd;stroke:#000000;stroke-linecap:butt;stroke-linejoin:miter;stroke-miterlimit:10.43299961;stroke-dasharray:none;stroke-dashoffset:0;stroke-opacity:1"><path
           id="path3229"
           d="m 490.8,417.81 0.01,0.02 0.01,0.03 0.02,0.05 0.02,0.05 0.02,0.05 0.02,0.05 0.02,0.05 0.02,0.05 0.01,0.05 0.01,0.03 0.01,0.02 0.01,0.02 0.01,0.03 v 0.02 l 0.01,0.02 0.01,0.02 v 0.02 l 0.01,0.02 v 0.02 l 0.01,0.01 v 0.02 0.02 0.01 0.01 l 0.01,0.01 c 0,0.05 0,0.55 -0.6,0.55 -0.45,0 -0.55,-0.3 -0.64,-0.61 -3.25,-7.38 -5.08,-10.7 -13.61,-10.7 h -7.26 c -0.71,0 -0.8,0 -1.1,0.04 -0.5,0.05 -0.65,0.1 -0.65,0.5 0,0.14 0,0.25 0.25,1.14 l 3.39,13.61 h 4.93 c 4.24,0 4.24,-1.04 4.24,-2.29 0,-0.35 0,-0.96 -0.36,-2.44 -0.09,-0.25 -0.14,-0.41 -0.14,-0.55 0,-0.25 0.19,-0.55 0.64,-0.55 0.41,0 0.55,0.25 0.75,0.99 l 2.84,11.67 c 0,0.3 -0.25,0.55 -0.61,0.55 -0.43,0 -0.54,-0.3 -0.68,-0.91 -1.05,-3.78 -1.96,-4.92 -6.54,-4.92 h -4.68 l 3,12 c 0.43,1.75 0.5,1.94 2.68,1.94 h 7.02 c 6.08,0 7.58,-1.44 7.58,-5.53 0,-1.19 0,-1.29 -0.2,-2.64 0,-0.3 -0.05,-0.65 -0.05,-0.9 0,-0.25 0.15,-0.59 0.59,-0.59 0.56,0 0.61,0.3 0.71,1.25 l 1,8.61 c 0.14,1.34 -0.1,1.34 -1.35,1.34 h -25.15 c -1,0 -1.5,0 -1.5,-1 0,-0.54 0.45,-0.54 1.39,-0.54 1.84,0 3.23,0 3.23,-0.89 0,-0.21 0,-0.3 -0.25,-1.21 l -6.56,-26.34 c -0.5,-1.95 -0.61,-2.34 -4.55,-2.34 -0.84,0 -1.39,0 -1.39,-0.96 0,-0.59 0.45,-0.59 1.39,-0.59 h 25.86 c 1.16,0 1.2,0.05 1.55,0.84 z"
           inkscape:connector-curvature="0"
           style="fill:#000000;stroke-width:0" /><path
           id="path3231"
           d="m 510.22,409.87 v 0.71 l -0.02,0.68 -0.03,0.66 -0.04,0.64 -0.06,0.62 -0.08,0.6 -0.09,0.57 -0.1,0.56 -0.13,0.55 -0.15,0.53 -0.17,0.51 -0.19,0.5 -0.21,0.49 -0.24,0.48 -0.26,0.47 -0.14,0.23 -0.15,0.23 c -1.08,1.61 -3.23,3 -6.03,3 v -0.98 c 1.89,0 3.7,-1.14 4.33,-3.17 0.56,-1.88 0.59,-4.39 0.59,-7.43 0,-2.57 0,-5.15 -0.45,-7.34 -0.71,-3.17 -3.06,-3.94 -4.47,-3.94 v 0 c -1.59,0 -3.72,0.94 -4.42,3.8 -0.49,2.05 -0.49,4.91 -0.49,7.48 0,2.55 0,5.21 0.52,7.11 0.73,2.75 2.97,3.49 4.39,3.49 v 0.98 c -8.08,0 -8.08,-9.51 -8.08,-12.03 0,-2.5 0,-11.81 8.08,-11.81 8.09,0 8.09,9.31 8.09,11.81 z"
           inkscape:connector-curvature="0"
           style="fill:#000000;stroke-width:0" /></g>    </g>
    <g
       id="g3299"
       transform="translate(64.375699,121.03866)">
      <g
         word-spacing="normal"
         letter-spacing="normal"
         font-size-adjust="none"
         font-stretch="normal"
         font-weight="normal"
         font-variant="normal"
         font-style="normal"
         stroke-miterlimit="10.433"
         xml:space="preserve"
         transform="matrix(0.3,0,0,-0.3,-52.5,222.75)"
         id="g3297"
         style="font-style:normal;font-variant:normal;font-weight:normal;font-stretch:normal;letter-spacing:normal;word-spacing:normal;text-anchor:start;fill:none;fill-opacity:1;fill-rule:evenodd;stroke:#000000;stroke-linecap:butt;stroke-linejoin:miter;stroke-miterlimit:10.43299961;stroke-dasharray:none;stroke-dashoffset:0;stroke-opacity:1"><path
           id="path3293"
           d="m 490.8,417.81 0.01,0.02 0.01,0.03 0.02,0.05 0.02,0.05 0.02,0.05 0.02,0.05 0.02,0.05 0.02,0.05 0.01,0.05 0.01,0.03 0.01,0.02 0.01,0.02 0.01,0.03 v 0.02 l 0.01,0.02 0.01,0.02 v 0.02 l 0.01,0.02 v 0.02 l 0.01,0.01 v 0.02 0.02 0.01 0.01 l 0.01,0.01 c 0,0.05 0,0.55 -0.6,0.55 -0.45,0 -0.55,-0.3 -0.64,-0.61 -3.25,-7.38 -5.08,-10.7 -13.61,-10.7 h -7.26 c -0.71,0 -0.8,0 -1.1,0.04 -0.5,0.05 -0.65,0.1 -0.65,0.5 0,0.14 0,0.25 0.25,1.14 l 3.39,13.61 h 4.93 c 4.24,0 4.24,-1.04 4.24,-2.29 0,-0.35 0,-0.96 -0.36,-2.44 -0.09,-0.25 -0.14,-0.41 -0.14,-0.55 0,-0.25 0.19,-0.55 0.64,-0.55 0.41,0 0.55,0.25 0.75,0.99 l 2.84,11.67 c 0,0.3 -0.25,0.55 -0.61,0.55 -0.43,0 -0.54,-0.3 -0.68,-0.91 -1.05,-3.78 -1.96,-4.92 -6.54,-4.92 h -4.68 l 3,12 c 0.43,1.75 0.5,1.94 2.68,1.94 h 7.02 c 6.08,0 7.58,-1.44 7.58,-5.53 0,-1.19 0,-1.29 -0.2,-2.64 0,-0.3 -0.05,-0.65 -0.05,-0.9 0,-0.25 0.15,-0.59 0.59,-0.59 0.56,0 0.61,0.3 0.71,1.25 l 1,8.61 c 0.14,1.34 -0.1,1.34 -1.35,1.34 h -25.15 c -1,0 -1.5,0 -1.5,-1 0,-0.54 0.45,-0.54 1.39,-0.54 1.84,0 3.23,0 3.23,-0.89 0,-0.21 0,-0.3 -0.25,-1.21 l -6.56,-26.34 c -0.5,-1.95 -0.61,-2.34 -4.55,-2.34 -0.84,0 -1.39,0 -1.39,-0.96 0,-0.59 0.45,-0.59 1.39,-0.59 h 25.86 c 1.16,0 1.2,0.05 1.55,0.84 z"
           inkscape:connector-curvature="0"
           style="fill:#000000;stroke-width:0" /><path
           id="path3295"
           d="m 503.91,420.92 v 0.04 0.04 0.05 0.04 0.03 0.04 0.04 0.03 l -0.01,0.04 v 0.03 0.03 0.03 0.03 l -0.01,0.03 v 0.03 l -0.01,0.02 v 0.03 0.02 l -0.01,0.03 v 0.02 l -0.02,0.04 -0.01,0.04 -0.02,0.03 -0.02,0.03 -0.02,0.03 -0.02,0.03 -0.03,0.02 -0.03,0.02 -0.04,0.02 -0.03,0.01 -0.04,0.01 -0.05,0.02 h -0.02 -0.03 l -0.02,0.01 h -0.03 l -0.03,0.01 h -0.02 -0.03 -0.03 -0.04 l -0.03,0.01 h -0.03 -0.04 -0.04 -0.03 -0.04 -0.04 -0.04 -0.05 -0.04 -0.05 c -2.23,-2.2 -5.39,-2.23 -6.82,-2.23 v -1.25 c 0.84,0 3.14,0 5.04,0.97 v -17.77 c 0,-1.16 0,-1.61 -3.48,-1.61 h -1.31 v -1.25 c 0.62,0.03 4.9,0.14 6.2,0.14 1.08,0 5.47,-0.11 6.23,-0.14 v 1.25 h -1.33 c -3.48,0 -3.48,0.45 -3.48,1.61 z"
           inkscape:connector-curvature="0"
           style="fill:#000000;stroke-width:0" /></g>    </g>
    <g
       id="g3367"
       transform="translate(-13.358342,86.469099)">
      <g
         word-spacing="normal"
         letter-spacing="normal"
         font-size-adjust="none"
         font-stretch="normal"
         font-weight="normal"
         font-variant="normal"
         font-style="normal"
         stroke-miterlimit="10.433"
         xml:space="preserve"
         transform="matrix(0.3,0,0,-0.3,-52.5,222.75)"
         id="g3365"
         style="font-style:normal;font-variant:normal;font-weight:normal;font-stretch:normal;letter-spacing:normal;word-spacing:normal;text-anchor:start;fill:none;fill-opacity:1;fill-rule:evenodd;stroke:#000000;stroke-linecap:butt;stroke-linejoin:miter;stroke-miterlimit:10.43299961;stroke-dasharray:none;stroke-dashoffset:0;stroke-opacity:1"><path
           id="path3361"
           d="m 464.49,410.84 0.24,0.39 0.24,0.38 0.23,0.38 0.21,0.37 0.21,0.37 0.2,0.36 0.18,0.35 0.18,0.35 0.18,0.35 0.16,0.34 0.15,0.33 0.15,0.33 0.14,0.33 0.14,0.32 0.24,0.62 0.23,0.61 0.2,0.6 0.19,0.57 0.16,0.56 0.16,0.54 0.14,0.53 0.13,0.52 0.13,0.5 c 1.73,6.87 3.64,12.86 6.71,16.3 0.61,0.65 1,1.09 2.6,1.09 3.44,0 3.53,-3.44 3.53,-4.12 0,-0.91 -0.25,-1.6 -0.25,-1.85 0,-0.36 0.31,-0.36 0.36,-0.36 0.8,0 2.14,0.55 3.39,1.46 0.89,0.68 1.34,1.18 1.34,3.23 0,2.69 -1.4,4.73 -4.18,4.73 -1.6,0 -5.99,-0.4 -10.86,-5.32 -3.99,-4.1 -6.33,-13.07 -7.28,-16.8 -0.9,-3.44 -1.3,-4.99 -2.79,-7.97 -0.36,-0.59 -1.65,-2.8 -2.34,-3.44 -1.34,-1.25 -1.84,-2.14 -1.84,-2.39 0,-0.09 0.09,-0.29 0.45,-0.29 0.19,0 1.23,0.2 2.53,1.04 0.84,0.5 0.95,0.6 2.09,1.8 2.5,-0.06 4.24,-0.5 7.38,-1.41 2.55,-0.68 5.08,-1.43 7.62,-1.43 4.04,0 8.13,3.03 9.72,5.23 0.99,1.34 1.3,2.58 1.3,2.73 0,0.35 -0.31,0.35 -0.36,0.35 -0.8,0 -1.98,-0.55 -2.84,-1.14 -1.35,-0.85 -1.44,-1.14 -1.74,-2 -0.25,-0.8 -0.54,-1.19 -0.75,-1.49 -0.39,-0.59 -0.45,-0.59 -1.2,-0.59 -2.39,0 -4.88,0.73 -8.16,1.64 -1.4,0.39 -4.14,1.19 -6.64,1.19 -0.64,0 -1.34,-0.05 -1.98,-0.19 z"
           inkscape:connector-curvature="0"
           style="fill:#000000;stroke-width:0" /><path
           id="path3363"
           d="m 505.42,403.64 -0.01,0.1 -0.01,0.11 -0.03,0.24 -0.03,0.28 -0.04,0.3 -0.05,0.33 -0.06,0.36 -0.07,0.38 -0.08,0.39 -0.09,0.41 -0.1,0.43 -0.11,0.43 -0.13,0.45 -0.14,0.44 -0.15,0.45 -0.17,0.45 -0.19,0.45 -0.2,0.44 -0.22,0.43 -0.23,0.42 -0.26,0.41 -0.27,0.39 -0.29,0.37 -0.31,0.35 -0.33,0.32 -0.36,0.29 -0.18,0.14 -0.19,0.13 -0.2,0.12 -0.2,0.11 -0.21,0.1 -0.21,0.09 -0.22,0.09 -0.23,0.07 -0.23,0.06 -0.23,0.06 -0.25,0.04 -0.25,0.03 -0.26,0.01 -0.26,0.01 c -2.05,0 -3.83,-1.11 -4.8,-2.01 -2.12,-1.93 -2.54,-4.15 -2.54,-4.25 0,-0.43 0.45,-0.43 0.56,-0.43 0.44,0 0.48,0.08 0.66,0.6 0.73,2.06 3.31,3.31 5.64,3.31 5.61,0 6.34,-5.61 6.34,-9.16 0,-1.75 -0.11,-2.12 -0.25,-2.51 -0.8,-2.61 -1.84,-6.49 -1.84,-7.53 0,-0.38 0.14,-0.83 0.59,-0.83 0.25,0 0.63,0 1.19,1.81 0.42,1.36 1.08,3.94 1.36,6.44 0.14,1.22 2.09,5.92 2.83,7.59 0.48,1.1 1.21,2.72 2.84,5.75 0.11,0.19 0.19,0.31 0.19,0.46 0,0.42 -0.46,0.42 -0.57,0.42 -0.11,0 -0.42,0 -0.53,-0.17 -0.4,-0.74 -3.06,-5.72 -4.62,-9.97 z"
           inkscape:connector-curvature="0"
           style="fill:#000000;stroke-width:0" /></g>    </g>
    <path
       style="fill:none;stroke:#000000;stroke-width:0.79529387;stroke-linecap:butt;stroke-linejoin:miter;stroke-miterlimit:4;stroke-dasharray:none;stroke-opacity:1"
       d="M 90.424653,222.92245 C 80.061863,205.52874 65.427,229.48854 42.904895,215.1806 43.610042,235.40719 5.5244353,225.72316 14.736158,241.32629"
       id="path3375"
       inkscape:connector-curvature="0"
       sodipodi:nodetypes="ccc" />
    <path
       style="fill:none;stroke:#000000;stroke-width:0.79529387;stroke-linecap:butt;stroke-linejoin:miter;stroke-miterlimit:4;stroke-dasharray:none;stroke-opacity:1"
       d="m 100.48613,224.23098 c 10.36279,-17.39371 24.99765,6.56609 47.51975,-7.74185 -0.70514,20.22659 25.85226,17.20713 16.64054,32.81025"
       id="path3375-1"
       inkscape:connector-curvature="0"
       sodipodi:nodetypes="ccc" />
  </g>
</svg>
